# xmcd
#
# Track frame offsets: 
#        150
#        28503
#        40396
#        51178
#        69088
#        87959
#        111014
#        124893
#
# Disc length: 1906 seconds
#
# Revision: 5
# Processed by: cddbd v1.5.2PL0 Copyright (c) Steve Scherf et al.
# Submitted via: ExactAudioCopy v0.99pb4
#
DISCID=63077008
DTITLE=Johnny Cash - Bitter Tears
DYEAR=1964
DGENRE=Country
TTITLE0=As Long As The Grass Shall Grow
TTITLE1=Apache Tears
TTITLE2=Custer
TTITLE3=The Talking Leaves
TTITLE4=The Ballad Of Ira Hayes
TTITLE5=Drums
TTITLE6=White Girl
TTITLE7=The Vanishing Race
EXTD=Ballads of the American Indian\nLabel: Columbia\nCK 66507
EXTT0=
EXTT1=
EXTT2=
EXTT3=
EXTT4=
EXTT5=
EXTT6=
EXTT7=
PLAYORDER=
